<svg xmlns="http://www.w3.org/2000/svg" viewBox="0 0 32 32">
  <g id="Layer_2" data-name="Layer 2">
    <g id="Layer_1-2" data-name="Layer 1">
      <path d="M30.27,0l-.19,0H19.36a1.68,1.68,0,1,0-.05,3.36h6.93L14.8,14.82a1.68,1.68,0,1,0,2.33,2.43s0,0,.05-.05L28.62,5.76v6.88a1.68,1.68,0,1,0,3.36,0,0,0,0,0,0,0,0V1.91A1.69,1.69,0,0,0,30.54,0Zm-24,2.54A6.34,6.34,0,0,0,0,8.86V25.69A6.34,6.34,0,0,0,6.31,32H23.15a6.34,6.34,0,0,0,6.31-6.31v-8a1.69,1.69,0,0,0-3.37,0v8a2.93,2.93,0,0,1-2.94,2.95H6.31a2.93,2.93,0,0,1-2.94-2.95V8.86A2.93,2.93,0,0,1,6.31,5.91h8a1.69,1.69,0,1,0,0-3.37h-8Z"/>
    </g>
  </g>
</svg>
