<svg xmlns="http://www.w3.org/2000/svg" viewBox="0 0 4.99 72.28"><defs><style>.cls-1{fill:#7f7d7a;}</style></defs><title>Line</title><g id="Layer_2" data-name="Layer 2"><g id="Layer_1-2" data-name="Layer 1"><rect class="cls-1" x="0.62" y="34.24" width="3.75" height="3.75" rx="0.37" transform="translate(-24.81 12.34) rotate(-45)"/><path class="cls-1" d="M2.38.11,1.46,31.75a.12.12,0,0,0,.21.07c.6-.62,1.16-.62,1.66,0a.11.11,0,0,0,.2-.07L2.61.11A.12.12,0,0,0,2.38.11Z"/><path class="cls-1" d="M2.61,72.17l.92-31.64a.11.11,0,0,0-.2-.07c-.61.62-1.16.62-1.67,0a.11.11,0,0,0-.2.08l.92,31.62A.12.12,0,0,0,2.61,72.17Z"/></g></g></svg>