<svg xmlns="http://www.w3.org/2000/svg" xmlns:xlink="http://www.w3.org/1999/xlink" viewBox="0 0 244.7 106.31"><defs><style>.cls-1{fill:#68605b;}.cls-1,.cls-6{fill-rule:evenodd;}.cls-2{fill:#4f4845;}.cls-3{fill:#a35842;}.cls-4{fill:#fff;}.cls-5{fill:#d89f79;}.cls-6{fill:#87827f;}.cls-7{fill:url(#linear-gradient);}</style><linearGradient id="linear-gradient" x1="38.2" y1="88.62" x2="61.33" y2="6.03" gradientUnits="userSpaceOnUse"><stop offset="0" stop-color="#6b5f5c"/><stop offset="0.14" stop-color="#9d9593"/><stop offset="0.27" stop-color="#c7c3c1"/><stop offset="0.39" stop-color="#e6e4e3"/><stop offset="0.49" stop-color="#f8f8f8"/><stop offset="0.55" stop-color="#fff"/><stop offset="0.63" stop-color="#f1f0f0"/><stop offset="0.77" stop-color="#cdcac9"/><stop offset="0.97" stop-color="#938c8b"/><stop offset="1" stop-color="#898180"/></linearGradient></defs><title>1d3trees</title><g id="Layer_2" data-name="Layer 2"><g id="Layer_1-2" data-name="Layer 1"><path class="cls-1" d="M81.73,4.83C76.79,2,72,.1,68.69,0a27.32,27.32,0,0,0-9.16,1.55C50.78,4.23,15.83,27.4,2.73,51.83-1.93,60.53-.48,70.55,6,80.56,20.07,102.31,40.85,109,60.18,105.37a62.78,62.78,0,0,0,34.44-18c7.15-7.19,14.54-21.52,14.53-36.88C109.12,21.85,86.6,7.61,81.73,4.83Z"/><path class="cls-2" d="M91.06,87.38c-8.57,7.13-17.79,10.5-26.77,9.79A34.74,34.74,0,0,1,40.4,84.38C36.83,80,29.86,67.3,31.65,49.51A47.39,47.39,0,0,1,47.32,18.83C54.26,12.9,65.23,8.44,76.7,10.34a35.9,35.9,0,0,1,24.15,16.32c7.16,11.66,8,23.75,5.23,35.26C103.29,73.61,97.65,81.89,91.06,87.38Z"/><path class="cls-3" d="M122.05,58.77V38.67c-3.23.12-5.28.4-6.13.85s-1.62,2.18-2.06,5.22l-2.86.18a85,85,0,0,0,.73-8.8l.49-.43,4.31.49H132l4.43-.49.49.43a82.68,82.68,0,0,0,.67,8.62l-2.8.18q-.24-1.64-.42-2.58a4.41,4.41,0,0,0-.7-1.7,11,11,0,0,0-.79-1.06,3,3,0,0,0-1.42-.55,34.85,34.85,0,0,0-4.44-.36q-.78,7.35-.79,22.16a3.71,3.71,0,0,0,.67,2.49,2.89,2.89,0,0,0,2.19.73l2.67-.12.18.18-.42,2.55q-5.3-.18-7.65-.18l-7.23.24.43-2.43c2.3-.16,3.71-.55,4.22-1.15S122.05,61.07,122.05,58.77Z"/><path class="cls-3" d="M159.82,38.09a6.19,6.19,0,0,1,2.79,5.19q0,6.26-7.16,9.47l5.16,7.78a11.25,11.25,0,0,0,2.79,3.09,5.57,5.57,0,0,0,3.22.91l.24.31-.3,1.88-4.68.48c-1.9,0-3.66-1.47-5.28-4.43l-5.1-8.92h-3.94l-.13,6.49c0,1.66.2,2.71.58,3.13s1.39.66,3,.7l.12.18-.49,2.31a48.76,48.76,0,0,0-5.58-.12l-6.08.18.43-2.49a5.39,5.39,0,0,0,3-1,3.87,3.87,0,0,0,.73-2.73l.06-19.37a3.79,3.79,0,0,0-.36-2,1.62,1.62,0,0,0-1.4-.51l-1.7.06-.18-.24.37-2.31q3.83.12,5.7.12l6.5-.18Q157,36.06,159.82,38.09Zm-7.23,13.09q5.1-2.07,5.1-6.62,0-5.89-8.68-5.89c-.56,0-.85.36-.85,1.09q-.48,7.41-.48,10.93Z"/><path class="cls-3" d="M176.82,49.48l5,.06,6-.49.24.3-.73,3.16q-4.19-.12-6.34-.12a30.47,30.47,0,0,0-4.28.3q-.18,4.62-.18,7.44c0,1.88.19,3,.57,3.28s1.66.46,3.83.46a23.16,23.16,0,0,0,4.92-.4A3.73,3.73,0,0,0,188.23,62a10.2,10.2,0,0,0,1.16-3.82l2.67-.24.24.3A68.09,68.09,0,0,0,191,66.48l-.37.3q-10.08-.3-13.54-.3a74.05,74.05,0,0,0-9,.48l.3-2.55a4.86,4.86,0,0,0,3-1.09,4.31,4.31,0,0,0,.79-2.92l.06-19.24a3.93,3.93,0,0,0-.37-2,1.7,1.7,0,0,0-1.46-.51l-1.63.06-.13-.24.37-2.31q4.3.12,11,.12a103.09,103.09,0,0,0,11.5-.55l.19.31a53.2,53.2,0,0,0-1.16,8.13l-2.91.25q.12-1.34.12-2c0-1.49-.39-2.42-1.15-2.76a14.07,14.07,0,0,0-4.77-.52,14.62,14.62,0,0,0-4.1.28c-.32.18-.51.67-.55,1.48Z"/><path class="cls-3" d="M204.63,49.48l5,.06,6-.49.24.3-.73,3.16c-2.79-.08-4.91-.12-6.34-.12a30.47,30.47,0,0,0-4.28.3q-.19,4.62-.19,7.44c0,1.88.2,3,.58,3.28s1.66.46,3.83.46a23,23,0,0,0,4.91-.4A3.73,3.73,0,0,0,216,62a10.2,10.2,0,0,0,1.16-3.82l2.67-.24.24.3a68.09,68.09,0,0,0-1.34,8.26l-.36.3q-10.08-.3-13.54-.3a74.23,74.23,0,0,0-9,.48l.31-2.55a4.83,4.83,0,0,0,3-1.09A4.25,4.25,0,0,0,200,60.4l.06-19.24a4,4,0,0,0-.36-2,1.7,1.7,0,0,0-1.46-.51l-1.64.06-.12-.24.37-2.31q4.3.12,11,.12a103.09,103.09,0,0,0,11.5-.55l.18.31a54.51,54.51,0,0,0-1.15,8.13l-2.92.25c.09-.89.13-1.56.13-2,0-1.49-.39-2.42-1.16-2.76a14,14,0,0,0-4.76-.52,14.62,14.62,0,0,0-4.1.28c-.33.18-.51.67-.55,1.48Z"/><path class="cls-3" d="M232,67a22.05,22.05,0,0,1-4.16-.39,17.39,17.39,0,0,1-3.92-1.25l-.3-.54a47.27,47.27,0,0,0,.67-8.2L227,56.4c0,3.15.41,5.23,1.22,6.22s2.32,1.49,4.55,1.49a8.77,8.77,0,0,0,5.13-1.28,4,4,0,0,0,1.79-3.4,4.3,4.3,0,0,0-2.19-3.52c-.84-.56-1.49-1-1.94-1.21-1.13-.53-2.29-1.09-3.46-1.67s-2.14-1.1-2.91-1.55a23.16,23.16,0,0,1-2.49-1.7,6.33,6.33,0,0,1-2.55-5.1,7.75,7.75,0,0,1,3.4-6.44,13.76,13.76,0,0,1,8.5-2.55,25.41,25.41,0,0,1,7.83,1.16l.24.42a52.8,52.8,0,0,0-1.15,8l-2.37.24-.36-.24a22.89,22.89,0,0,0,.12-2.74,3.26,3.26,0,0,0-1.25-2.76,6.87,6.87,0,0,0-4.09-.94A7.78,7.78,0,0,0,230.52,40a3.58,3.58,0,0,0-1.67,3,3.81,3.81,0,0,0,1.67,3.1,24.69,24.69,0,0,0,4.28,2.52c1.74.83,2.89,1.37,3.43,1.64a24.93,24.93,0,0,1,2.34,1.33,9.82,9.82,0,0,1,2.19,1.73,6.36,6.36,0,0,1,1.94,4.37,7.94,7.94,0,0,1-3.52,6.71A15.16,15.16,0,0,1,232,67Z"/><path class="cls-4" d="M38.72,67V65.94c4.39-.22,5.47-.48,5.47-3.75V42.67c0-1-.39-1.38-1.34-1.38H38.76v-.9l8-4.18h1.6v26c0,3.27,1.12,3.53,5.47,3.75V67Z"/><path class="cls-4" d="M68.78,67.21a57,57,0,0,0-6.15-.57,36.9,36.9,0,0,0-6.19.57L56.72,65a5.5,5.5,0,0,0,3-1.26,4.24,4.24,0,0,0,.76-2.84l0-20a4,4,0,0,0-.36-2,1.57,1.57,0,0,0-1.4-.53l-1.62.1-.1-.19.33-2.1c2.13.09,3.8.14,5,.14l7.24-.19q7,0,11.32,3.95t4.37,10.68a16,16,0,0,1-4.77,11.6A15.71,15.71,0,0,1,68.78,67.21ZM66.3,38.43a2.83,2.83,0,0,0-1.34.21,1,1,0,0,0-.38.83q-.7,18.36-.71,21c0,1.73.4,2.89,1.19,3.48s2.4.88,4.82.88A10,10,0,0,0,78,61.23q3-3.55,3-9.8t-3.79-9.62Q73.35,38.42,66.3,38.43Z"/><path class="cls-5" d="M95.85,36.23c1.88,0,3.39,0,4.52,0s2.1,0,2.93-.07a1.46,1.46,0,0,1,.47.8,3.16,3.16,0,0,1,.07,1q-1.5,1.83-3.47,4.29t-4.3,5.49a8.53,8.53,0,0,1,3.29.46,8.06,8.06,0,0,1,2.86,1.69,8.19,8.19,0,0,1,2,2.88,9.84,9.84,0,0,1,.76,4,9.11,9.11,0,0,1-.85,3.84,9.76,9.76,0,0,1-2.42,3.22,11.62,11.62,0,0,1-3.84,2.21,14.83,14.83,0,0,1-5.1.83,11.84,11.84,0,0,1-4-.6,8.16,8.16,0,0,1-2.7-1.46,2.3,2.3,0,0,1,.14-.75,2.13,2.13,0,0,1,.5-.76,7.69,7.69,0,0,0,2,.85,13.38,13.38,0,0,0,3.77.43,8.85,8.85,0,0,0,2.72-.45,8.34,8.34,0,0,0,2.51-1.35,7.4,7.4,0,0,0,1.85-2.24,6.43,6.43,0,0,0,.73-3.13A6.33,6.33,0,0,0,98.73,53a6.5,6.5,0,0,0-5-1.78,3.09,3.09,0,0,0-1.46.32,3.17,3.17,0,0,1-.59-.82,1.69,1.69,0,0,1-.23-.78c1.83-2.31,3.36-4.29,4.59-5.92s2.25-3,3-4.13H93.52a10.8,10.8,0,0,0-1.67.11,2.61,2.61,0,0,0-2,1.42,8.51,8.51,0,0,0-.66,1.67,3.9,3.9,0,0,1-1-.14,2,2,0,0,1-.86-.46,20.11,20.11,0,0,0,.43-3.22c0-1,.07-2.06.07-3.13.76,0,1.8,0,3.11.07S93.9,36.23,95.85,36.23Z"/><path class="cls-6" d="M31.65,49.51A47.39,47.39,0,0,1,47.32,18.83,37.35,37.35,0,0,1,76.7,10.34,36.39,36.39,0,0,1,92,17c0-.07-3.42-5.75-1.67-6a56.4,56.4,0,0,0-8.59-6.12C76.79,2,72,.1,68.69,0a27.32,27.32,0,0,0-9.16,1.55C51.84,3.91,23.89,22.1,8.35,43.07c4.64-2.14,10.12-2.77,14.44-.65,6.53,3.21,6.28,10.68,8.61,14.69A56.4,56.4,0,0,1,31.65,49.51Z"/><path class="cls-7" d="M75.12,10.07c.3-.47-15.42-1.39-26,6.53C29.85,31,24.49,61.46,37.38,81.23c5.58,8.55,18.07,14.55,17.91,14C33.56,84.74,27.56,61.77,35.42,37.49,44.51,9.43,73.1,9.35,75.12,10.07Z"/></g></g></svg>